<svg xmlns="http://www.w3.org/2000/svg" viewBox="0 0 67.62 95"><defs><style>.cls-1{fill:#00d154;}</style></defs><g id="Laag_2" data-name="Laag 2"><g id="Laag_1-2" data-name="Laag 1"><path class="cls-1" d="M19.42,87.6a4.1,4.1,0,0,0,1.4,3.1l4.1,3.4a3.84,3.84,0,0,0,2.5.9h12.8a3.84,3.84,0,0,0,2.5-.9l4.1-3.4a4.1,4.1,0,0,0,1.4-3.1V80.1h-29v7.5Z"/><path class="cls-1" d="M30,.2A33.85,33.85,0,0,0,15,62a9.44,9.44,0,0,1,4.3,7.9v2.8h29V70a9.63,9.63,0,0,1,4.1-7.9A33.86,33.86,0,0,0,30,.2Zm18.2,33.6-17,22.8a2.29,2.29,0,0,1-4.1-1.8l3-14.7h-8.5a2.35,2.35,0,0,1-1.9-3.7l17-22.8a2.29,2.29,0,0,1,4.1,1.8l-3,14.7h8.5A2.33,2.33,0,0,1,48.22,33.8Z"/></g></g></svg>